<svg xmlns="http://www.w3.org/2000/svg" viewBox="0 0 250 40"><title>logo</title><path d="M53.17,18.19V32.77H47.24V18.19a3.71,3.71,0,1,0-7.42,0V32.77H33.89V18.19a3.71,3.71,0,1,0-7.42,0V32.77H20.54V18.19a9.65,9.65,0,0,1,9.62-9.66,9.52,9.52,0,0,1,6.68,2.72,9.62,9.62,0,0,1,16.33,6.94Z" fill="#231f20"/><path d="M71.48,21.62V9.31h5.86V21.62c0,6.19-4.78,11.71-11.15,11.71S55,27.81,55,21.62V9.31h5.86V21.62c0,2.94,2.16,5.81,5.3,5.81S71.48,24.56,71.48,21.62Z" fill="#231f20"/><path d="M98.63,17.4l-11,9.44h12.86v5.93H84.87c-2.69,0-5.67-1.2-5.67-4.29a5.35,5.35,0,0,1,2.09-3.92l11-9.47H79.39V9.16h15.7c2.68,0,5.63,1.19,5.63,4.29A5.34,5.34,0,0,1,98.63,17.4Z" fill="#231f20"/><path d="M122,17.4l-11,9.44h12.87v5.93H108.25c-2.68,0-5.67-1.2-5.67-4.29a5.39,5.39,0,0,1,2.09-3.92l11-9.47H102.77V9.16h15.7c2.69,0,5.63,1.19,5.63,4.29A5.34,5.34,0,0,1,122,17.4Z" fill="#231f20"/><path d="M158.6,18.19V32.77h-5.93V18.19a3.71,3.71,0,1,0-7.42,0V32.77h-5.93V18.19a3.71,3.71,0,1,0-7.42,0V32.77H126V18.19a9.65,9.65,0,0,1,9.62-9.66,9.48,9.48,0,0,1,6.67,2.72,9.63,9.63,0,0,1,16.34,6.94Z" fill="#231f20"/><path d="M166.39,25.12c0,.78.08,1.72,1.16,1.72h8.28v5.93h-8.28a7.14,7.14,0,0,1-7.09-7.09v-.56A7.14,7.14,0,0,1,167.55,18h6.79c-.49-1.49-1-2.91-2.8-2.91h-9.06V9.16h9.06c3.58,0,6.94,2.87,8.09,6.15l6.12,17.46h-6.27l-3.09-8.84h-8.84A1.2,1.2,0,0,0,166.39,25.12Z" fill="#231f20"/><path d="M209.92,20.31V32.77h-5.86V20.31c0-3-2.16-5.85-5.3-5.85s-5.29,2.87-5.29,5.85V32.77h-5.86V20.31c0-6.23,4.78-11.75,11.15-11.75S209.92,14.08,209.92,20.31Z" fill="#231f20"/><path d="M215.1,15.76A3.77,3.77,0,1,1,218.87,12,3.76,3.76,0,0,1,215.1,15.76Zm-2.95,17V17.07H218V32.73Z" fill="#231f20"/><path d="M226.21,25.12c0,.78.08,1.72,1.16,1.72h8.28v5.93h-8.28a7.14,7.14,0,0,1-7.09-7.09v-.56A7.14,7.14,0,0,1,227.37,18h6.79c-.49-1.49-1-2.91-2.8-2.91H222.3V9.16h9.06c3.58,0,6.93,2.87,8.09,6.15l6.12,17.46H239.3l-3.09-8.84h-8.84A1.19,1.19,0,0,0,226.21,25.12Z" fill="#231f20"/></svg>