<?xml version="1.0" standalone="no"?>
<!DOCTYPE svg PUBLIC "-//W3C//DTD SVG 20010904//EN"
 "http://www.w3.org/TR/2001/REC-SVG-20010904/DTD/svg10.dtd">
<svg version="1.0" xmlns="http://www.w3.org/2000/svg"
 width="700.000000pt" height="700.000000pt" viewBox="0 0 700.000000 700.000000"
 preserveAspectRatio="xMidYMid meet">
<metadata>
Created by potrace 1.11, written by Peter Selinger 2001-2013
</metadata>
<g transform="translate(0.000000,700.000000) scale(0.100000,-0.100000)"
fill="#000000" stroke="none">
<path d="M3268 6995 c-2 -1 -43 -6 -93 -9 -49 -4 -98 -9 -110 -11 -11 -2 -38
-7 -60 -9 -22 -3 -51 -8 -65 -10 -14 -3 -42 -7 -62 -10 -175 -26 -484 -116
-698 -203 -334 -136 -672 -347 -990 -618 -112 -96 -293 -283 -390 -404 -19
-24 -40 -49 -47 -55 -6 -7 -49 -66 -96 -130 -364 -508 -586 -1109 -645 -1751
-9 -102 -9 -487 1 -585 4 -41 9 -100 12 -130 17 -176 90 -492 160 -697 225
-661 613 -1205 1165 -1634 312 -242 688 -441 1065 -562 102 -33 267 -79 325
-91 306 -60 499 -80 772 -79 221 1 315 10 554 49 222 36 561 128 699 189 17 7
75 32 130 56 520 221 1001 594 1360 1054 160 205 334 493 426 705 23 52 47
109 55 125 21 48 110 306 119 345 2 8 15 60 29 115 14 55 28 116 31 135 3 19
8 42 10 50 2 8 6 29 9 45 12 74 15 93 21 135 3 25 8 56 10 70 23 159 23 634 0
780 -3 14 -7 50 -10 80 -5 51 -8 73 -19 125 -2 11 -7 40 -11 65 -9 56 -11 64
-25 125 -6 28 -13 59 -16 70 -10 51 -88 306 -120 393 -178 475 -460 910 -824
1270 -445 441 -995 751 -1605 906 -55 14 -116 28 -135 31 -19 3 -42 8 -50 10
-8 2 -30 7 -47 10 -18 3 -46 7 -63 10 -65 11 -87 14 -150 20 -36 4 -78 9 -95
12 -33 5 -521 13 -527 8z m339 -2969 c122 -23 268 -129 354 -257 85 -127 93
-325 19 -491 -27 -61 -100 -159 -142 -191 -37 -29 -127 -71 -198 -93 -68 -22
-207 -29 -271 -14 -141 33 -280 142 -358 283 -50 89 -70 237 -47 343 4 16 8
39 11 52 7 39 72 146 120 200 124 137 324 203 512 168z"/>
</g>
</svg>
