<?xml version="1.0" encoding="utf-8"?>
<!-- Generator: Adobe Illustrator 22.1.0, SVG Export Plug-In . SVG Version: 6.00 Build 0)  -->
<svg version="1.1" id="Layer_1" xmlns="http://www.w3.org/2000/svg" xmlns:xlink="http://www.w3.org/1999/xlink" x="0px" y="0px"
	 viewBox="0 0 225 25" style="enable-background:new 0 0 225 25;" xml:space="preserve">
<style type="text/css">
	.st0{fill:#231F20;}
</style>
<title>logo</title>
<path class="st0" d="M32.6,10.3v14.6h-5.9V10.3c0-2-1.7-3.7-3.7-3.7s-3.7,1.7-3.7,3.7v14.6h-5.9V10.3c0-2-1.7-3.7-3.7-3.7
	s-3.8,1.6-3.8,3.7v14.6H0V10.3c0-5.3,4.3-9.6,9.6-9.7c2.5,0,4.9,1,6.7,2.7c3.8-3.7,9.9-3.6,13.6,0.2C31.7,5.3,32.6,7.7,32.6,10.3z"
	/>
<path class="st0" d="M50.9,13.6V1.4h5.9v12.3c0,6.2-4.8,11.7-11.2,11.7s-11.2-5.5-11.2-11.7V1.4h5.9v12.3c0,2.9,2.2,5.8,5.3,5.8
	C48.8,19.5,50.9,16.5,50.9,13.6z"/>
<path class="st0" d="M78.1,9.4l-11,9.4H80v5.9H64.3c-2.7,0-5.7-1.2-5.7-4.3c0.1-1.5,0.9-3,2.1-3.9l11-9.5H58.9V1.1h15.7
	c2.7,0,5.6,1.2,5.6,4.3C80.1,7.1,79.3,8.4,78.1,9.4z"/>
<path class="st0" d="M101.5,9.4l-11,9.4h12.9v5.9H87.7c-2.7,0-5.7-1.2-5.7-4.3c0.1-1.5,0.9-3,2.1-3.9l11-9.5H82.2V1.1h15.7
	c2.7,0,5.6,1.2,5.6,4.3C103.5,7.1,102.7,8.4,101.5,9.4z"/>
<path class="st0" d="M138.1,10.3v14.6h-5.9V10.3c0-2-1.7-3.7-3.7-3.7s-3.7,1.7-3.7,3.7l0,0v14.6h-5.9V10.3c0-2-1.7-3.7-3.7-3.7
	s-3.7,1.7-3.7,3.7l0,0v14.6h-5.9V10.3c0-5.3,4.3-9.6,9.6-9.7c2.5,0,4.9,1,6.7,2.7c3.8-3.7,9.9-3.6,13.6,0.2
	C137.1,5.3,138.1,7.8,138.1,10.3L138.1,10.3z"/>
<path class="st0" d="M145.9,17.1c0,0.8,0.1,1.7,1.2,1.7h8.3v5.9H147c-3.9,0-7.1-3.2-7.1-7.1V17c0-3.9,3.2-7.1,7.1-7.1h6.8
	c-0.5-1.5-1-2.9-2.8-2.9h-9.1V1.1h9.1c3.6,0,6.9,2.9,8.1,6.1l6.1,17.5h-6.3l-3.1-8.8H147C146.4,15.9,145.9,16.5,145.9,17.1z"/>
<path class="st0" d="M189.4,12.4v12.5h-5.9V12.4c0-3-2.2-5.9-5.3-5.9s-5.3,2.9-5.3,5.9v12.5H167V12.4c0-6.2,4.8-11.8,11.1-11.8
	S189.4,6.2,189.4,12.4z"/>
<path class="st0" d="M194.6,7.8c-2.1,0-3.8-1.7-3.8-3.8s1.7-3.8,3.8-3.8s3.8,1.7,3.8,3.8l0,0C198.3,6.2,196.6,7.8,194.6,7.8
	L194.6,7.8z M191.6,24.8V9.1h5.8v15.7H191.6z"/>
<path class="st0" d="M205.7,17.1c0,0.8,0.1,1.7,1.2,1.7h8.3v5.9h-8.3c-3.9,0-7.1-3.2-7.1-7.1V17c0-3.9,3.2-7.1,7.1-7.1h6.8
	c-0.5-1.5-1-2.9-2.8-2.9h-9.1V1.1h9.1c3.6,0,6.9,2.9,8.1,6.1l6.1,17.5h-6.3l-3.1-8.8h-8.8C206.2,15.9,205.7,16.5,205.7,17.1z"/>
</svg>
